<?xml version="1.0" standalone="no"?>
<!DOCTYPE svg PUBLIC "-//W3C//DTD SVG 20010904//EN"
 "http://www.w3.org/TR/2001/REC-SVG-20010904/DTD/svg10.dtd">
<svg version="1.0" xmlns="http://www.w3.org/2000/svg"
 width="700.000000pt" height="700.000000pt" viewBox="0 0 700.000000 700.000000"
 preserveAspectRatio="xMidYMid meet">
<metadata>
Created by potrace 1.11, written by Peter Selinger 2001-2013
</metadata>
<g transform="translate(0.000000,700.000000) scale(0.100000,-0.100000)"
fill="#000000" stroke="none">
<path d="M3215 6994 c-134 -14 -304 -38 -409 -59 -1377 -275 -2463 -1361
-2741 -2740 -51 -256 -59 -348 -59 -695 0 -340 7 -432 55 -674 102 -517 317
-1002 627 -1415 541 -722 1324 -1207 2195 -1360 238 -42 297 -46 617 -46 320
0 379 4 617 46 1022 179 1911 812 2439 1734 212 371 351 788 421 1270 25 173
25 716 0 895 -104 725 -381 1334 -850 1867 -563 640 -1309 1037 -2172 1158
-115 17 -634 29 -740 19z m1080 -1541 c-24 -55 -28 -91 -15 -122 7 -18 21 -36
31 -41 16 -9 14 -18 -29 -110 -45 -95 -48 -100 -73 -95 -15 4 -43 -1 -62 -9
-43 -17 -20 25 -349 -656 -132 -272 -242 -509 -245 -526 -5 -32 16 -86 39
-101 7 -4 254 -10 549 -13 l536 -5 -810 -1053 c-445 -579 -811 -1051 -813
-1049 -2 2 111 367 251 813 140 445 255 822 255 838 0 19 -11 39 -34 62 l-34
34 -507 0 c-440 0 -506 2 -502 15 4 8 155 465 338 1017 182 552 333 1006 336
1011 2 4 261 7 575 7 539 0 570 -1 563 -17z"/>
</g>
</svg>
