<svg xmlns="http://www.w3.org/2000/svg" viewBox="0 0 512 512"><circle cx="256" cy="256" r="248.5" fill="#ff8a00"/><path d="M357.9,228h0M327.5,79.6h-102a23.86,23.86,0,0,0-22.8,16.5L147.8,261.8a24,24,0,0,0,22.8,31.6h49.3L179,423.7a24,24,0,0,0,11.8,28.5,24.13,24.13,0,0,0,30.2-6.7L376.6,243a23.69,23.69,0,0,0,5.4-15.2,23.94,23.94,0,0,0-24-24H305.9L349.3,114A24,24,0,0,0,348,90.8a24.57,24.57,0,0,0-20.5-11.2Zm0,48.1Z" fill="#ffb400"/><polygon points="357.9 228 267.5 228 327.5 103.7 225.5 103.7 170.6 269.4 252.6 269.4 201.9 431 357.9 228" fill="#fff"/><path d="M288.1,472.4c-137.2,0-248.5-111.3-248.5-248.5A247.05,247.05,0,0,1,97.1,65,247.73,247.73,0,0,0,7.5,256C7.5,393.2,118.8,504.5,256,504.5a247.73,247.73,0,0,0,191-89.6A247.46,247.46,0,0,1,288.1,472.4Z" fill="#ff7800"/><path d="M437,75A255.91,255.91,0,0,0,75,75a255.91,255.91,0,0,0,0,362,255.91,255.91,0,0,0,362,0,255.91,255.91,0,0,0,0-362ZM426.4,426.4A241,241,0,1,1,85.6,85.6,241,241,0,1,1,426.4,426.4Z"/><path d="M357.9,220.5H279.4L313,150.9a7.49,7.49,0,0,0-13.5-6.5l-38.8,80.4a7.51,7.51,0,0,0,6.8,10.8h75.2L221.7,393l38.1-121.2a7.54,7.54,0,0,0-7.1-9.8H181l49.9-150.7h84.7l-2.2,4.6a7.49,7.49,0,1,0,13.5,6.5l7.4-15.3a7.51,7.51,0,0,0-6.8-10.8h-102a7.55,7.55,0,0,0-7.1,5.1L163.5,267.1a7.51,7.51,0,0,0,1,6.8,7.4,7.4,0,0,0,6.1,3.1h71.8L194.7,428.8a7.52,7.52,0,0,0,3.7,8.9,7.64,7.64,0,0,0,9.4-2.1l156.1-203a7.76,7.76,0,0,0,.8-7.9A7.55,7.55,0,0,0,357.9,220.5Z"/></svg>